<svg xmlns="http://www.w3.org/2000/svg" xmlns:xlink="http://www.w3.org/1999/xlink" viewBox="0 0 49.97 49.97"><defs><style>.cls-1,.cls-4,.cls-8{stroke:#141414;}.cls-1{stroke-linecap:square;stroke-width:0.97px;fill:url(#Nepojmenovaný_přechod);}.cls-2{fill:#141414;}.cls-3,.cls-8{fill:#fff;}.cls-4,.cls-8{stroke-width:1.14px;}.cls-4{fill:url(#Nepojmenovaný_přechod_2);}.cls-5{fill:#42bd3b;}.cls-6{fill:url(#Nepojmenovaný_přechod_3);}.cls-7{fill:url(#Nepojmenovaný_přechod_4);}</style><linearGradient id="Nepojmenovaný_přechod" x1="-590.92" y1="-64.87" x2="-531.87" y2="-64.87" gradientTransform="matrix(0, -0.83, -0.83, 0, -30.31, -442.32)" gradientUnits="userSpaceOnUse"><stop offset="0" stop-color="#99a2a7"/><stop offset="0.48" stop-color="#98a3a8"/><stop offset="0.54" stop-color="#e6e6e6"/><stop offset="1" stop-color="#e6e6e6"/></linearGradient><linearGradient id="Nepojmenovaný_přechod_2" x1="-49.05" y1="475.42" x2="-24.01" y2="452.5" gradientTransform="translate(73.27 -578.63) scale(1.3 1.3)" gradientUnits="userSpaceOnUse"><stop offset="0" stop-color="#151313"/><stop offset="0.09" stop-color="#151313"/><stop offset="0.13" stop-color="#f8f1f1"/><stop offset="0.23" stop-color="#151313"/><stop offset="0.3" stop-color="#141414"/><stop offset="0.38" stop-color="#f8f1f1"/><stop offset="0.45" stop-color="#151313"/><stop offset="0.57" stop-color="#f8f1f4"/><stop offset="0.63" stop-color="#141414"/><stop offset="0.79" stop-color="#f8f1f1"/><stop offset="1" stop-color="#f8f1f2"/></linearGradient><linearGradient id="Nepojmenovaný_přechod_3" x1="14.99" y1="-16.77" x2="17.48" y2="-21.25" gradientTransform="matrix(1, -0.15, -0.15, -1, 10.11, 14.61)" gradientUnits="userSpaceOnUse"><stop offset="0" stop-color="#151313"/><stop offset="0.16" stop-color="#ccc4c4"/><stop offset="0.5" stop-color="#b7acad"/><stop offset="1" stop-color="#151313"/></linearGradient><linearGradient id="Nepojmenovaný_přechod_4" x1="-321.81" y1="80.94" x2="-318.33" y2="77.33" gradientTransform="matrix(-0.92, -0.41, 0.41, -0.92, -299.98, -28.17)" gradientUnits="userSpaceOnUse"><stop offset="0" stop-color="#151313"/><stop offset="0.25" stop-color="#ccc4c4"/><stop offset="0.5" stop-color="#b7acad"/><stop offset="1" stop-color="#151313"/></linearGradient></defs><title>Datový zdroj 1</title><g id="Vrstva_2" data-name="Vrstva 2"><g id="svg17053"><g id="g3094"><g id="g3942"><g id="g3935"><path id="path3112" class="cls-1" d="M24.9.49A24.5,24.5,0,1,1,.49,25.07,24.5,24.5,0,0,1,24.9.49Z"/><g id="g24"><path id="path26" class="cls-2" d="M25,47A22,22,0,0,1,9.43,9.43,22,22,0,1,1,40.54,40.54,21.85,21.85,0,0,1,25,47"/></g><g id="g28"><path id="path30" class="cls-3" d="M25,45.2A20.21,20.21,0,0,1,10.69,10.69,20.21,20.21,0,1,1,39.28,39.28,20.08,20.08,0,0,1,25,45.2"/></g></g><g id="g4188"><path id="path22-7" class="cls-4" d="M40.33,34.7A10.31,10.31,0,0,0,34.9,32a.48.48,0,0,0-.56.48v.75a.46.46,0,0,1-.39.47h-.48c-.57,0-.68-.71-.56-1.13a32.45,32.45,0,0,0,1.5-9,19.58,19.58,0,0,0-1-6.81c-.89-2.61-1.71-5.16-6-9.06a1.53,1.53,0,0,0-1-.42c-.42,0-.77,0-1.2,0a17.86,17.86,0,0,0-5.14.75c-.61.18-.52.61-.18.9A24.81,24.81,0,0,1,25.24,15a2.94,2.94,0,0,1-2.32-1A29.2,29.2,0,0,0,17.1,9.75a.83.83,0,0,0-.87-.07,16.32,16.32,0,0,0-4.57,3.8c-.25.29-.09.52.16.65a33.57,33.57,0,0,1,6.44,4.57c-.47.4-1.22.27-2.3-.3a25.87,25.87,0,0,0-5.6-2.11.73.73,0,0,0-.84.3,17,17,0,0,0-2,5.78.72.72,0,0,0,.6.81c3.55.62,9.89,2.29,10.94,9.59a.83.83,0,0,1-1.26.84l-3.2-1.5a.9.9,0,0,0-.36-.1h-5a.7.7,0,0,0-.54,1.22,31.34,31.34,0,0,1,3.27,4.49.35.35,0,0,0,.34.2h2.2a.76.76,0,0,0,.41-.11L17,36.6a.73.73,0,0,1,.41-.07H33.94a.37.37,0,0,1,.4.37v.82a.48.48,0,0,0,.56.48,10.31,10.31,0,0,0,5.43-2.67.56.56,0,0,0,0-.82"/><path id="path24" class="cls-5" d="M28,32.31a3,3,0,1,1,3-3A3,3,0,0,1,28,32.31ZM38.84,35.1a8.42,8.42,0,0,0-3.74-1.8c-.13,0-.19,0-.19.16v.07a.82.82,0,0,1-.71.76h-.93a1.24,1.24,0,0,1-1.2-1.69c3.37-12-.4-19.45-5.15-23.6-1.29-1.13-1.41-1.19-2.69-1.14A17,17,0,0,0,21,8.27c-.2,0-.36.2-.1.42A22.44,22.44,0,0,1,28.18,19.8c.05.19-.06.18-.21.19a2.44,2.44,0,0,1-2.3-1.31,33.72,33.72,0,0,0-9.37-7.91c-.26-.16-.31-.16-.51,0a14.92,14.92,0,0,0-3.11,2.5c-.18.19-.13.28.06.38a31.1,31.1,0,0,1,9.45,8.13c.21.27.23.39.11.46a2.89,2.89,0,0,1-2.94-.36,37.79,37.79,0,0,0-9.1-4.19c-.27-.08-.32-.06-.43.17a18.45,18.45,0,0,0-1.56,4.52c0,.19,0,.21.13.25,7.08,1.44,11,5.32,11.41,10.51a1.51,1.51,0,0,1-2,1.45c-1.1-.35-2.17-.74-3.27-1.09a1.14,1.14,0,0,0-.36-.06H9.66c-.2,0-.32.13-.12.38a30.54,30.54,0,0,1,2.63,3.64.35.35,0,0,0,.35.2h1.68a1.14,1.14,0,0,0,.61-.17l1.83-1a1.08,1.08,0,0,1,.58-.18h17a.83.83,0,0,1,.72.77v.12c0,.13.06.18.19.16a8.59,8.59,0,0,0,3.74-1.9c.1-.08.1-.16,0-.25"/><g id="g16866"><path id="path26-4" class="cls-6" d="M31.07,29a3.33,3.33,0,1,1-3.78-2.81A3.33,3.33,0,0,1,31.07,29"/><path id="path26-4-9" class="cls-7" d="M28.31,26.22l-1,6.59a3.33,3.33,0,0,0,1-6.59Z"/></g><path id="path28" class="cls-8" d="M30.58,29.42a2.23,2.23,0,1,1-2.23-2.23,2.23,2.23,0,0,1,2.23,2.23"/></g></g></g></g></g></svg>